Coordinates
version=1
nRows=19
nColumns=24
inDegrees=yes

Units are S.I. units (second, meters, Newtons, ...)
Angles are in degrees.

endheader
time	pelvis_tilt	pelvis_list	pelvis_rotation	pelvis_tx	pelvis_ty	pelvis_tz	hip_flexion_r	hip_adduction_r	hip_rotation_r	knee_angle_r	ankle_angle_r	subtalar_angle_r	mtp_angle_r	hip_flexion_l	hip_adduction_l	hip_rotation_l	knee_angle_l	ankle_angle_l	subtalar_angle_l	mtp_angle_l	lumbar_extension	lumbar_bending	lumbar_rotation
      0.85033333	      0.73953747	     -3.17072790	      8.30245637	     -0.50919326	      1.02813405	      0.34725149	     12.29685126	      8.55860786	     -3.76506792	    -18.94759280	      3.60040865	     -9.25225950	      9.57848661	     18.83264887	     -5.50331640	      1.03604249	    -67.25058564	     -2.40083466	     -6.16135091	      3.00102958	     -2.18658331	     -0.48202567	     -1.94206598
      0.85450000	      0.74409141	     -3.09410041	      8.23137588	     -0.50442200	      1.02893941	      0.34755772	     11.85647618	      8.52967154	     -3.78211073	    -18.69516159	      3.74784393	     -9.02919919	      9.59531498	     19.27604864	     -5.36320310	      0.99868847	    -66.76936431	     -1.70604136	     -6.13494067	      2.89128690	     -2.26799679	     -0.56274475	     -1.77832693
      0.85866667	      0.73710329	     -3.01966949	      8.14098848	     -0.49964528	      1.02968198	      0.34787233	     11.43191184	      8.50205157	     -3.79092774	    -18.45177422	      3.91174404	     -8.78854673	      9.61518842	     19.71553860	     -5.22892442	      0.94013646	    -66.24200906	     -1.06388926	     -6.11083530	      2.78089721	     -2.32351390	     -0.64997392	     -1.58176149
      0.86283333	      0.73074775	     -2.94499105	      8.03358483	     -0.49486918	      1.03043115	      0.34819182	     11.00298781	      8.47616988	     -3.77584623	    -18.20146980	      4.06223361	     -8.55234254	      9.63584126	     20.13197425	     -5.09552792	      0.87247946	    -65.65241310	     -0.47259849	     -6.11231857	      2.67502219	     -2.37954574	     -0.73156725	     -1.37109071
      0.86700000	      0.72577202	     -2.86277424	      7.90993902	     -0.49009917	      1.03115109	      0.34852553	     10.57330252	      8.44391865	     -3.74464930	    -17.95548840	      4.21351497	     -8.31846795	      9.65765574	     20.52626289	     -4.95796700	      0.78985601	    -65.00864305	      0.07211245	     -6.12250639	      2.57273337	     -2.43754544	     -0.81937763	     -1.14337597
      0.87116667	      0.71829947	     -2.78713554	      7.76839534	     -0.48533805	      1.03182819	      0.34886268	     10.14990675	      8.41948922	     -3.69451446	    -17.71392913	      4.36118348	     -8.09111134	      9.68039596	     20.90716780	     -4.83181348	      0.69232350	    -64.31849779	      0.58431460	     -6.13594580	      2.47583342	     -2.49103283	     -0.89787651	     -0.90019355
      0.87533333	      0.72073225	     -2.71100170	      7.61115630	     -0.48057673	      1.03250008	      0.34921751	      9.71353816	      8.39789244	     -3.62462292	    -17.46803698	      4.50571754	     -7.87143947	      9.70235122	     21.25603635	     -4.71369203	      0.58007603	    -63.57080968	      1.04898436	     -6.15858414	      2.39127135	     -2.55341626	     -0.97330502	     -0.64652248
      0.87950000	      0.71089832	     -2.64414674	      7.44072419	     -0.47582123	      1.03311685	      0.34957586	      9.29296138	      8.38438750	     -3.53713275	    -17.22436304	      4.64262115	     -7.65520891	      9.72588523	     21.60291750	     -4.60715997	      0.45941685	    -62.77768579	      1.48299681	     -6.18993508	      2.30326459	     -2.59823060	     -1.03887868	     -0.36302408
      0.88366667	      0.69513569	     -2.56578976	      7.24884051	     -0.47107104	      1.03369749	      0.34995788	      8.88247756	      8.35924360	     -3.42522534	    -16.99292405	      4.78583274	     -7.45460021	      9.74675126	     21.93163909	     -4.49560436	      0.31525495	    -61.92707606	      1.86962387	     -6.23488796	      2.23281747	     -2.63622275	     -1.11861539	     -0.09202823
      0.88783333	      0.69014640	     -2.48987436	      7.04438916	     -0.46631991	      1.03426962	      0.35035200	      8.45949718	      8.33808816	     -3.29864831	    -16.75804940	      4.92018800	     -7.24822028	      9.76731528	     22.22783085	     -4.39327999	      0.16151711	    -61.02400245	      2.22379713	     -6.29163284	      2.16296163	     -2.68636025	     -1.19254536	      0.21658000
      0.89200000	      0.66204087	     -2.42250785	      6.82457947	     -0.46157894	      1.03475475	      0.35074935	      8.07093507	      8.32012605	     -3.16444251	    -16.53895687	      5.04472095	     -7.03961697	      9.79139693	     22.53428643	     -4.30279088	     -0.00452555	    -60.07979623	      2.55230880	     -6.36946725	      2.07432153	     -2.70569638	     -1.25253182	      0.55667479
      0.89616667	      0.65907575	     -2.34925461	      6.59426652	     -0.45682612	      1.03527340	      0.35117113	      7.64634302	      8.30321043	     -2.99047832	    -16.30490648	      5.18465234	     -6.87132587	      9.80748135	     22.78583935	     -4.21758813	     -0.18487250	    -59.07034034	      2.82097181	     -6.43367584	      2.01968438	     -2.75421432	     -1.32794816	      0.83692570
      0.90033333	      0.62871161	     -2.27935835	      6.34656213	     -0.45208188	      1.03568800	      0.35161121	      7.26318094	      8.28382835	     -2.81242694	    -16.09438401	      5.32313369	     -6.69356497	      9.82214150	     23.05104933	     -4.14064272	     -0.38261857	    -58.02206850	      3.06321599	     -6.52650919	      1.96708984	     -2.76462455	     -1.39728605	      1.16929711
      0.90450000	      0.61490958	     -2.21892085	      6.09245905	     -0.44733930	      1.03610836	      0.35204758	      6.85990597	      8.27455708	     -2.61879949	    -15.87435947	      5.44592799	     -6.51726163	      9.83482385	     23.27847215	     -4.07824488	     -0.58097753	    -56.92272848	      3.27227775	     -6.63304059	      1.91289200	     -2.79856061	     -1.45188518	      1.51303129
      0.90866667	      0.58098981	     -2.16455599	      5.82710959	     -0.44260286	      1.03644903	      0.35249650	      6.48641391	      8.26787043	     -2.41153269	    -15.66930041	      5.56666498	     -6.34774198	      9.84522119	     23.51069105	     -4.02508145	     -0.78682567	    -55.78028917	      3.44848969	     -6.75444460	      1.85276333	     -2.81039968	     -1.49708417	      1.87147706
      0.91283333	      0.54993537	     -2.10436952	      5.55185185	     -0.43784710	      1.03676292	      0.35295545	      6.11016827	      8.25301376	     -2.19840279	    -15.46860313	      5.70956689	     -6.19772336	      9.85314866	     23.71374895	     -3.97352431	     -1.01269394	    -54.58310839	      3.57665134	     -6.88938236	      1.79952868	     -2.80708936	     -1.55552745	      2.19617677
      0.91700000	      0.51945262	     -2.04763274	      5.26994753	     -0.43309454	      1.03705425	      0.35340635	      5.73531716	      8.23855323	     -1.96895368	    -15.26975184	      5.83518435	     -6.03645414	      9.85874918	     23.89405300	     -3.92503900	     -1.23481560	    -53.33534694	      3.67199444	     -7.05400325	      1.73707950	     -2.81434196	     -1.60442622	      2.56593432
      0.92116667	      0.46317641	     -1.99532536	      4.96938761	     -0.42835861	      1.03724852	      0.35388988	      5.40263938	      8.22625362	     -1.71689063	    -15.09961476	      5.96564964	     -5.89951013	      9.86255654	     24.08458151	     -3.89059640	     -1.48011610	    -52.04758650	      3.74588447	     -7.20848315	      1.69120455	     -2.80094070	     -1.64143227	      2.83361832
      0.92533333	      0.42377390	     -1.96401426	      4.69071940	     -0.42358710	      1.03742917	      0.35433125	      5.03765965	      8.23223472	     -1.49217668	    -14.89449604	      6.09664891	     -5.74145426	      9.86239265	     24.24296012	     -3.86871512	     -1.69192539	    -50.72014008	      3.76811163	     -7.42621792	      1.61077602	     -2.77585537	     -1.67075295	      3.28578149
